<svg width="341" height="300" viewBox="0 0 341 300" fill="none" xmlns="http://www.w3.org/2000/svg">
<rect x="200" width="100" height="100" rx="15" fill="#6700FF"/>
<path d="M100 115C100 106.716 106.716 100 115 100H185C193.284 100 200 106.716 200 115V185C200 193.284 193.284 200 185 200H115C106.716 200 100 193.284 100 185V115Z" fill="white"/>
<path d="M0 215C0 206.716 6.71573 200 15 200H85C93.2843 200 100 206.716 100 215V285C100 293.284 93.2843 300 85 300H15C6.71573 300 0 293.284 0 285V215Z" fill="white"/>
<path d="M300 115C300 106.716 306.716 100 315 100H385C393.284 100 400 106.716 400 115V185C400 193.284 393.284 200 385 200H315C306.716 200 300 193.284 300 185V115Z" fill="white"/>
<circle cx="250" cy="150" r="45" fill="#FC5BFF"/>
<circle cx="150" cy="250" r="45" fill="#4BE0F4"/>
</svg>
